<?xml version="1.0" standalone="no"?>
<!DOCTYPE svg PUBLIC "-//W3C//DTD SVG 20010904//EN"
 "http://www.w3.org/TR/2001/REC-SVG-20010904/DTD/svg10.dtd">
<svg version="1.0" xmlns="http://www.w3.org/2000/svg"
 width="700.000000pt" height="700.000000pt" viewBox="0 0 700.000000 700.000000"
 preserveAspectRatio="xMidYMid meet">
<metadata>
Created by potrace 1.14, written by Peter Selinger 2001-2017
</metadata>
<g transform="translate(0.000000,700.000000) scale(0.100000,-0.100000)"
fill="#000000" stroke="none">
<path d="M5447 6414 c-2 -2 -28 -6 -58 -8 -29 -3 -69 -9 -86 -15 -18 -5 -33
-7 -33 -4 0 3 -7 0 -15 -7 -8 -7 -15 -9 -15 -6 0 4 -10 1 -22 -6 -13 -7 -29
-11 -35 -10 -7 2 -13 -2 -13 -9 0 -6 -6 -9 -14 -6 -8 3 -17 -1 -20 -10 -4 -9
-9 -13 -13 -10 -3 4 -18 -2 -33 -13 -16 -11 -33 -20 -39 -20 -6 0 -11 -4 -11
-9 0 -5 -9 -13 -21 -16 -28 -9 -192 -172 -185 -184 4 -5 -3 -12 -14 -16 -11
-3 -19 -9 -18 -13 4 -18 -26 -60 -43 -59 -10 1 -15 5 -13 9 5 7 -2 9 -22 8 -3
-1 -14 9 -24 22 -11 13 -19 19 -20 14 0 -6 -6 -2 -12 7 -7 9 -20 17 -28 19 -8
2 -23 11 -34 21 -11 9 -26 17 -33 17 -7 0 -13 5 -13 10 0 6 -5 10 -10 10 -6 0
-42 15 -80 34 -37 19 -71 32 -74 28 -3 -3 -6 1 -6 8 0 7 -3 11 -6 7 -4 -3 -19
0 -35 9 -16 8 -29 12 -29 8 0 -4 -6 -1 -13 5 -8 6 -17 8 -21 4 -4 -4 -10 -2
-14 4 -4 6 -20 13 -37 16 -127 22 -140 25 -140 27 0 4 -44 9 -99 11 -34 1 -64
7 -68 13 -6 8 -8 8 -8 0 0 -12 -41 -11 -61 2 -7 4 -10 3 -6 -2 3 -6 -25 -10
-65 -11 -46 -1 -74 -7 -79 -15 -6 -9 -9 -9 -9 -1 0 6 -9 11 -20 10 -11 -1 -20
-4 -20 -7 0 -5 -21 -8 -87 -13 -13 -1 -23 -5 -23 -9 0 -5 -11 -8 -24 -8 -13 0
-27 -6 -29 -12 -4 -10 -6 -10 -6 0 -1 8 -6 9 -18 3 -28 -15 -117 -46 -125 -43
-5 1 -8 -2 -8 -8 0 -6 -3 -9 -7 -8 -12 2 -46 -13 -65 -30 -10 -8 -18 -12 -18
-8 0 4 -20 -5 -43 -19 -24 -14 -47 -22 -52 -17 -4 4 -5 2 -2 -4 3 -6 -6 -17
-21 -25 -15 -8 -33 -20 -40 -26 -7 -7 -17 -13 -21 -13 -5 0 -20 -12 -35 -26
-14 -15 -26 -24 -26 -20 0 4 -16 -9 -35 -28 -19 -20 -35 -33 -35 -29 0 3 -9
-4 -20 -17 -11 -13 -20 -28 -20 -33 0 -6 -3 -8 -6 -5 -3 4 -40 -28 -82 -70
-42 -43 -80 -76 -84 -74 -5 1 -8 -4 -8 -10 0 -7 -13 -22 -29 -33 -17 -11 -28
-21 -26 -24 3 -2 -10 -15 -27 -28 -18 -12 -28 -23 -24 -23 4 0 -12 -17 -36
-38 -57 -50 -99 -92 -90 -92 3 0 -4 -7 -17 -16 -18 -13 -20 -18 -10 -25 10 -6
11 -9 2 -9 -7 0 -13 -10 -13 -23 0 -13 6 -29 13 -36 10 -11 9 -12 -3 -5 -11 6
-11 1 3 -20 18 -27 18 -28 -2 -47 -12 -11 -21 -25 -21 -31 0 -6 -2 -9 -5 -6
-3 3 -36 -24 -73 -61 -37 -36 -71 -65 -76 -63 -4 2 -6 -4 -2 -13 3 -9 2 -13
-3 -10 -5 3 -16 -4 -24 -15 -12 -17 -16 -18 -34 -5 -11 8 -23 11 -27 8 -3 -3
-6 -2 -6 4 0 6 -16 10 -35 10 -19 -1 -35 -4 -35 -8 0 -4 -10 -9 -22 -11 -13
-2 -22 -9 -21 -16 2 -6 -4 -12 -12 -12 -8 0 -15 -5 -15 -11 0 -5 -5 -7 -12 -3
-8 5 -9 2 -5 -9 3 -10 2 -17 -3 -17 -17 0 -60 -43 -53 -53 3 -6 1 -7 -5 -4 -5
4 -22 -7 -36 -24 -14 -17 -26 -27 -26 -23 0 4 -11 -6 -23 -24 -13 -17 -27 -29
-30 -25 -4 3 -7 2 -7 -4 0 -5 -9 -20 -20 -33 -11 -13 -20 -20 -20 -17 0 4 -29
-22 -64 -58 -35 -35 -67 -61 -70 -57 -4 4 -6 2 -4 -4 3 -11 -120 -134 -135
-134 -4 0 -6 -4 -3 -9 3 -5 -4 -16 -17 -24 -33 -22 -122 -111 -119 -119 1 -5
-3 -8 -8 -8 -14 0 -70 -58 -70 -72 0 -6 -3 -8 -7 -5 -9 10 -43 -23 -43 -41 0
-8 -6 -12 -14 -9 -9 4 -17 -2 -21 -14 -4 -10 -11 -17 -16 -14 -5 4 -9 2 -9 -4
0 -9 -33 -42 -123 -125 -15 -14 -27 -30 -27 -36 0 -5 -4 -10 -9 -10 -6 0 -71
-60 -145 -133 -75 -74 -138 -132 -141 -129 -3 3 -5 -3 -5 -13 0 -10 -2 -16 -5
-13 -3 3 -42 -31 -87 -76 -45 -44 -85 -80 -90 -79 -4 2 -8 -2 -8 -7 0 -13 -97
-110 -110 -110 -6 0 -10 -4 -10 -9 0 -9 -46 -61 -54 -61 -10 0 -54 -49 -48
-54 3 -3 0 -6 -6 -6 -6 0 -67 -56 -136 -124 -68 -68 -127 -121 -130 -118 -3 3
-6 0 -6 -6 0 -6 -13 -24 -30 -40 -16 -16 -26 -32 -23 -36 4 -3 1 -6 -5 -6 -9
0 -12 -150 -12 -620 0 -394 4 -620 10 -620 6 0 10 -5 10 -11 0 -5 -4 -8 -10
-4 -5 3 -3 -7 5 -21 8 -15 12 -31 9 -36 -3 -4 -1 -8 5 -8 5 0 13 -10 16 -21
12 -37 100 -129 124 -129 6 0 14 -6 18 -13 8 -14 42 -31 56 -29 4 1 7 -5 7
-13 0 -8 7 -15 16 -15 8 0 22 -7 31 -15 8 -8 19 -12 25 -9 6 4 8 3 5 -3 -3 -5
13 -20 36 -33 23 -13 70 -43 104 -66 34 -23 64 -40 67 -36 3 3 6 0 6 -7 0 -7
13 -17 30 -22 16 -6 27 -15 24 -20 -3 -5 1 -9 8 -9 8 0 29 -11 48 -25 18 -13
37 -22 41 -19 5 3 9 -2 9 -11 0 -9 4 -13 10 -10 5 3 10 1 10 -4 0 -6 6 -11 14
-11 8 0 16 -4 18 -9 2 -5 10 -11 18 -13 8 -2 23 -12 33 -22 9 -10 17 -16 17
-12 0 4 7 1 15 -6 34 -31 45 -38 45 -31 0 4 4 3 8 -4 4 -6 14 -13 21 -15 8 -2
26 -14 39 -28 16 -16 20 -18 11 -5 -10 16 -7 15 16 -5 17 -14 31 -28 33 -33 2
-4 8 -5 13 -1 5 3 9 0 9 -5 0 -6 5 -11 10 -11 6 0 35 -18 64 -39 30 -22 56
-37 60 -34 3 4 6 1 6 -6 0 -7 5 -9 10 -6 6 3 10 2 10 -2 0 -5 18 -19 40 -33
22 -14 40 -28 40 -32 0 -5 9 -8 21 -8 12 0 18 -4 13 -11 -4 -7 -1 -10 6 -7 7
2 24 -6 38 -19 14 -13 31 -23 38 -23 8 0 14 -4 14 -10 0 -5 7 -10 15 -10 8 0
15 -4 15 -10 0 -5 7 -10 15 -10 8 0 15 -4 15 -10 0 -5 7 -10 15 -10 8 0 15 -5
15 -12 0 -6 3 -9 6 -5 4 3 12 1 20 -6 33 -30 44 -37 44 -30 0 4 7 -2 16 -13 8
-10 13 -12 9 -4 -4 10 -2 9 8 -3 8 -9 19 -17 26 -17 6 0 11 -5 11 -12 0 -6 3
-9 6 -5 3 3 15 -3 27 -14 11 -10 28 -19 37 -19 9 0 20 -4 25 -9 6 -6 22 -12
37 -15 15 -2 31 -7 36 -10 4 -2 14 -1 22 4 9 5 19 5 27 -1 8 -7 19 -7 34 1 16
9 20 9 14 0 -5 -9 -3 -9 11 -2 11 5 25 7 32 5 6 -3 12 0 12 7 0 6 4 9 9 5 5
-3 12 -1 16 5 4 6 11 8 16 5 5 -4 9 -1 9 5 0 6 4 9 9 5 5 -3 16 2 24 10 9 8
18 15 22 15 4 0 12 6 19 13 7 6 32 28 55 47 24 19 54 45 67 58 13 13 24 20 24
17 0 -3 13 8 30 25 16 16 32 30 36 30 3 0 24 17 45 38 22 20 43 37 47 37 4 0
20 14 37 32 16 18 35 33 41 33 7 0 14 7 18 15 3 8 10 15 15 15 5 0 25 15 44
32 73 68 96 86 101 80 3 -3 6 2 6 12 0 9 5 14 10 11 6 -3 10 -1 10 5 0 6 5 8
10 5 5 -3 10 1 10 9 0 9 4 16 9 16 8 0 51 34 92 72 11 10 21 18 23 18 2 0 26
20 52 45 27 24 50 43 51 41 2 -2 25 16 50 40 25 24 53 44 61 44 9 0 12 6 8 16
-3 8 -2 13 2 10 5 -3 24 10 44 29 20 18 39 31 42 28 2 -3 10 5 16 17 6 12 14
20 16 17 3 -2 22 12 44 32 21 20 54 48 72 63 42 34 108 89 132 108 10 8 29 25
42 37 13 12 24 20 24 18 0 -2 13 8 29 23 16 15 43 38 61 52 17 14 46 38 63 53
47 41 153 117 164 117 6 0 18 9 28 20 10 11 24 20 31 20 7 0 14 3 16 8 4 9 91
52 107 52 6 0 11 5 11 10 0 6 9 10 20 10 11 0 20 5 20 10 0 6 9 10 20 10 11 0
20 4 20 10 0 5 7 7 15 4 8 -4 15 -1 15 5 0 6 3 10 8 9 13 -3 67 23 82 40 26
29 41 70 27 76 -9 3 -9 5 0 5 7 1 10 7 7 14 -2 7 5 22 17 33 13 10 19 13 15 7
-4 -7 -2 -13 3 -13 6 0 11 4 11 8 0 8 7 10 50 14 11 1 20 5 20 8 0 3 8 7 18 7
48 5 68 9 78 16 7 4 17 0 24 -8 7 -8 9 -15 4 -15 -5 0 0 -7 10 -15 11 -8 16
-15 10 -15 -5 0 6 -9 25 -21 18 -11 35 -18 38 -15 3 3 16 1 29 -4 13 -5 24 -6
24 -1 0 4 15 8 33 8 83 3 116 7 110 16 -3 5 3 4 14 -2 14 -7 23 -7 31 1 8 8
12 8 12 2 0 -6 7 -11 15 -11 8 0 15 4 15 9 0 11 23 6 32 -7 5 -7 8 -7 8 0 0
12 158 14 178 2 6 -5 12 -4 12 1 0 5 7 9 15 9 8 0 15 -5 15 -10 0 -5 7 -4 15
3 8 7 15 9 15 4 0 -5 32 -10 72 -12 39 -1 77 -7 85 -13 9 -9 13 -8 13 0 0 7 5
9 11 6 9 -6 41 -12 119 -20 14 -2 25 -4 25 -5 0 -5 87 -9 193 -10 80 -1 118 3
130 12 13 11 14 11 7 -2 -8 -13 -7 -13 8 -1 12 9 17 10 17 2 0 -7 5 -9 13 -4
6 4 21 8 32 9 53 3 95 16 89 27 -5 9 -4 9 6 0 10 -9 18 -9 34 -1 12 6 22 11
24 10 1 -1 3 -2 5 -1 1 0 13 3 27 5 14 3 27 9 28 14 2 6 8 8 13 5 4 -3 29 3
53 15 25 11 48 20 52 20 4 0 16 8 27 17 13 12 17 13 12 4 -5 -9 3 -7 21 6 16
11 39 24 52 27 12 4 22 12 22 18 0 6 3 8 7 5 3 -4 22 5 40 19 19 14 42 27 51
29 9 1 16 8 15 14 -2 6 3 11 10 11 7 0 27 14 45 30 18 17 37 30 42 30 5 0 13
6 17 13 4 7 21 23 37 35 16 12 26 22 24 22 -3 0 21 27 54 60 32 33 55 60 51
60 -4 0 0 5 10 11 9 5 17 16 17 24 0 7 10 22 23 32 12 10 23 25 25 33 2 7 11
20 20 28 12 9 13 12 2 7 -12 -5 -12 -4 1 7 8 7 22 28 30 46 7 17 18 32 22 32
5 0 5 4 2 10 -3 6 -1 10 4 10 6 0 11 3 10 8 -2 15 14 52 23 52 5 0 7 4 3 9 -3
5 -1 12 5 16 5 3 10 15 10 26 0 10 5 19 10 19 6 0 8 11 6 25 -3 14 -1 23 5 20
5 -4 9 -3 10 2 1 9 0 6 29 113 12 41 21 87 21 102 0 15 4 30 8 32 4 3 7 21 6
41 0 19 2 35 6 35 4 0 5 82 3 183 -5 234 -5 228 -13 223 -3 -2 -7 10 -9 27 -4
43 -9 72 -11 72 -3 0 -10 27 -15 55 -2 8 -8 26 -13 40 -6 14 -9 28 -6 33 2 4
-1 7 -7 7 -7 0 -10 7 -6 15 3 8 1 15 -4 15 -5 0 -7 9 -5 20 2 11 0 18 -6 15
-5 -4 -9 1 -9 9 0 9 -9 31 -20 51 -11 20 -20 42 -20 50 0 8 -5 15 -11 15 -5 0
-7 5 -4 10 3 6 2 10 -4 10 -5 0 -13 10 -17 23 -4 12 -24 48 -45 79 -22 31 -39
62 -39 68 0 6 -7 13 -15 16 -8 4 -15 12 -15 20 0 8 -7 14 -15 14 -8 0 -15 5
-15 11 0 6 -40 50 -90 98 -114 110 -140 133 -140 126 0 -4 -7 0 -15 7 -33 30
-45 38 -55 38 -5 0 -10 4 -10 9 0 5 -8 11 -17 14 -10 4 -37 18 -61 32 -23 14
-48 25 -56 25 -7 0 -21 9 -31 20 -10 11 -27 20 -37 20 -11 0 -17 4 -13 9 3 5
-4 12 -15 16 -17 5 -18 9 -8 28 6 12 20 30 31 40 11 9 16 17 12 17 -4 0 -1 8
8 18 10 10 14 22 10 25 -3 4 -1 7 5 7 7 0 12 5 12 11 0 7 8 18 18 26 9 8 12
12 5 9 -6 -4 -1 15 13 41 13 27 24 56 24 66 0 9 4 17 8 17 8 0 10 11 14 72 2
21 6 38 9 38 9 0 18 177 10 195 -5 9 -10 54 -12 98 0 9 -4 17 -8 17 -5 0 -7
11 -6 25 2 14 -1 25 -6 25 -5 0 -8 3 -7 8 5 19 -51 152 -64 152 -5 0 -6 5 -3
10 3 6 1 10 -5 10 -6 0 -8 5 -5 10 3 6 1 10 -4 10 -6 0 -11 7 -11 15 0 9 -7
18 -15 21 -8 4 -15 10 -15 14 0 17 -93 115 -145 155 -15 11 -34 27 -43 36 -10
8 -32 21 -49 28 -18 8 -33 17 -33 22 0 5 -8 9 -18 9 -10 0 -22 4 -27 9 -16 14
-134 53 -173 56 -20 2 -44 5 -52 8 -17 7 -148 16 -153 11z m43 -706 c0 8 5 10
13 5 6 -4 15 -8 19 -8 18 0 68 -48 68 -65 0 -11 5 -20 11 -20 8 0 8 -5 -1 -15
-10 -12 -10 -15 1 -15 10 0 10 -3 1 -12 -7 -7 -12 -18 -12 -25 0 -21 -43 -59
-73 -65 -15 -3 -27 -2 -27 1 0 4 -16 15 -35 25 -19 11 -35 23 -35 28 0 4 -5 8
-11 8 -31 0 -54 69 -28 85 6 4 8 13 6 20 -6 14 66 59 77 48 3 -3 6 0 6 8 0 11
2 11 10 -1 7 -11 10 -11 10 -2z"/>
</g>
</svg>
