<?xml version="1.0" standalone="no"?>
<!DOCTYPE svg PUBLIC "-//W3C//DTD SVG 20010904//EN"
 "http://www.w3.org/TR/2001/REC-SVG-20010904/DTD/svg10.dtd">
<svg version="1.0" xmlns="http://www.w3.org/2000/svg"
 width="920.000000pt" height="500.000000pt" viewBox="0 0 920.000000 500.000000"
 preserveAspectRatio="xMidYMid meet">

<g transform="translate(0.000000,500.000000) scale(0.100000,-0.100000)"
fill="#000000" stroke="none">
<path d="M4365 4900 c-91 -8 -245 -34 -300 -50 -16 -5 -59 -16 -95 -26 -165
-43 -281 -89 -452 -175 -462 -235 -822 -595 -1057 -1057 -122 -241 -199 -481
-242 -757 -17 -107 -17 -573 -1 -680 45 -283 123 -523 251 -770 132 -255 246
-408 458 -616 147 -144 190 -180 328 -274 293 -200 649 -338 1020 -396 107
-17 573 -17 680 -1 274 44 517 121 757 243 464 236 822 594 1058 1060 40 78
80 164 90 193 10 28 28 76 40 106 21 55 29 82 57 195 59 238 79 433 69 700 -7
225 -22 318 -83 550 -77 288 -250 630 -436 860 -62 76 -283 300 -362 364 -244
202 -580 374 -885 455 -36 10 -79 22 -97 27 -17 5 -84 19 -150 30 -134 22
-494 33 -648 19z m215 -124 c0 -2 -7 -6 -15 -10 -8 -3 -15 -1 -15 4 0 6 7 10
15 10 8 0 15 -2 15 -4z m-140 -40 c0 -2 -7 -7 -16 -10 -8 -3 -12 -2 -9 4 6 10
25 14 25 6z m-67 -33 c-7 -2 -21 -2 -30 0 -10 3 -4 5 12 5 17 0 24 -2 18 -5z
m-66 -19 c-3 -3 -12 -4 -19 -1 -8 3 -5 6 6 6 11 1 17 -2 13 -5z m-57 -34 c-14
-11 -33 -20 -43 -20 -10 0 -29 -7 -43 -16 -13 -9 -27 -14 -30 -11 -9 9 56 49
89 54 18 3 34 9 36 15 1 5 6 6 9 3 4 -4 -4 -15 -18 -25z m-120 -64 c0 -3 -4
-8 -10 -11 -5 -3 -10 -1 -10 4 0 6 5 11 10 11 6 0 10 -2 10 -4z m1064 -28 c13
-13 36 -35 52 -49 34 -32 64 -70 64 -82 0 -5 7 -6 16 -3 14 5 15 4 4 -9 -10
-12 -10 -15 4 -15 9 0 16 -6 16 -14 0 -8 3 -21 6 -30 4 -11 1 -16 -10 -16 -9
0 -16 7 -16 15 0 7 -6 18 -13 22 -7 4 -21 24 -30 43 -16 31 -18 32 -16 10 1
-14 1 -43 0 -65 -2 -38 -2 -39 -17 -20 -8 11 -14 34 -12 51 2 32 -16 69 -61
118 -21 23 -22 28 -7 22 18 -6 18 -5 2 19 -20 31 -12 32 18 3z m-1086 -13 c-3
-3 -13 -2 -22 1 -14 5 -15 9 -4 15 13 8 36 -6 26 -16z m559 -37 c-3 -7 -5 -2
-5 12 0 14 2 19 5 13 2 -7 2 -19 0 -25z m200 6 c-3 -4 -14 -3 -24 0 -15 6 -15
8 -3 16 16 10 39 -4 27 -16z m-817 -9 c0 -8 -2 -15 -4 -15 -2 0 -6 7 -10 15
-3 8 -1 15 4 15 6 0 10 -7 10 -15z m1862 -43 c37 -24 37 -24 18 -45 -11 -11
-23 -17 -27 -13 -5 4 0 13 10 21 16 12 16 14 -8 29 -14 9 -26 14 -26 11 -5
-21 -3 -32 7 -49 7 -10 11 -23 10 -30 -2 -6 -1 -8 1 -4 3 4 16 -6 30 -22 19
-23 28 -28 38 -20 17 14 32 -7 16 -23 -15 -15 -14 -30 1 -20 7 4 22 7 33 8 15
0 21 8 23 33 l3 33 52 -43 c167 -137 295 -270 415 -432 221 -295 364 -630 433
-1016 20 -109 23 -159 23 -385 0 -226 -3 -276 -23 -385 -51 -287 -131 -514
-268 -763 -70 -126 -186 -296 -244 -356 -8 -9 -28 -33 -44 -54 -33 -44 -50
-38 -60 23 -4 21 -14 45 -22 52 -24 20 -53 95 -53 138 0 27 -8 48 -26 69 -14
17 -25 41 -26 53 0 13 -5 36 -11 51 -7 20 -7 35 1 50 7 12 14 34 16 48 4 28
-15 147 -28 167 -6 10 -26 141 -51 331 -2 18 -13 52 -25 75 -24 51 -98 129
-115 123 -7 -3 -37 18 -68 46 -30 29 -87 72 -125 97 -74 47 -86 64 -52 73 64
17 -46 97 -200 147 -14 4 -63 28 -110 53 -132 71 -312 159 -340 167 -25 7 -27
11 -29 78 -1 21 -6 32 -16 32 -8 0 -15 -7 -15 -15 0 -33 -81 -82 -175 -106
-56 -13 -80 -31 -101 -71 -20 -38 -34 -35 -34 5 0 40 -27 69 -70 74 -16 1 -53
12 -82 23 -29 11 -60 20 -68 20 -16 0 -112 35 -145 53 -11 6 -45 24 -75 39
-80 42 -140 107 -140 155 0 7 -3 13 -7 13 -12 0 -43 -33 -43 -45 0 -48 -62
-105 -114 -105 -14 0 -27 -4 -30 -9 -5 -8 -35 -16 -101 -28 -16 -3 -37 -9 -45
-13 -8 -4 -40 -15 -70 -23 -63 -18 -236 -79 -268 -96 -12 -6 -32 -16 -44 -22
-36 -19 -162 -69 -173 -69 -5 0 -38 -25 -72 -55 -33 -30 -65 -55 -70 -55 -6 0
-35 -18 -66 -41 -57 -40 -71 -65 -42 -74 50 -16 49 -14 24 -36 -13 -12 -33
-25 -44 -30 -25 -11 -52 -28 -83 -54 -37 -30 -122 -145 -129 -174 -3 -14 -11
-33 -18 -41 -19 -23 -57 -138 -50 -150 4 -6 1 -18 -6 -26 -7 -8 -13 -34 -15
-57 -4 -76 -23 -172 -44 -214 -11 -23 -20 -47 -20 -52 0 -5 -12 -47 -26 -93
-31 -97 -30 -98 -101 52 -229 485 -284 1056 -152 1582 26 103 91 293 117 343
21 40 21 40 15 8 -3 -20 -1 -39 7 -48 10 -12 9 -15 -6 -16 -11 -1 -22 -1 -25
-1 -3 1 -6 -5 -6 -13 0 -10 5 -11 18 -5 12 7 23 4 41 -11 12 -11 16 -17 8 -13
-13 7 -13 5 -1 -9 7 -9 17 -15 21 -12 5 3 6 -5 4 -17 -2 -13 -2 -17 2 -10 8
16 25 16 18 -1 -2 -7 7 -23 21 -35 29 -25 43 -29 25 -7 -9 11 -9 15 -1 15 7 0
10 4 6 9 -3 5 0 13 6 17 7 4 9 3 5 -4 -3 -6 -1 -14 5 -17 5 -4 8 -13 5 -21 -3
-7 -1 -16 5 -19 5 -4 8 -1 7 7 -2 8 5 13 17 12 14 -1 21 5 21 17 0 10 -3 16
-6 14 -4 -2 -7 2 -7 10 0 8 4 12 9 9 4 -3 8 3 8 13 0 15 2 16 10 3 7 -11 10
-11 10 -2 0 7 5 10 10 7 6 -3 10 1 10 9 0 8 4 18 10 21 5 3 7 0 5 -7 -4 -9 2
-14 13 -14 19 0 20 4 23 51 1 23 3 24 14 9 16 -23 45 -11 40 15 -2 11 0 23 5
26 5 3 7 -3 5 -15 -2 -11 1 -22 6 -25 5 -4 7 -11 3 -16 -3 -5 -10 -7 -15 -4
-5 3 -6 -1 -3 -10 5 -13 11 -10 31 12 18 21 22 23 17 8 -7 -18 -6 -19 11 -5
10 8 16 10 12 4 -4 -7 0 -17 8 -24 10 -9 15 -9 15 -1 0 6 10 11 23 12 12 0 16
3 10 6 -7 2 -13 10 -13 16 0 5 3 7 7 4 3 -4 12 -2 20 4 9 9 17 8 28 -1 17 -14
38 -4 31 16 -8 20 13 72 22 57 5 -8 13 -9 22 -3 9 6 10 10 3 10 -11 0 -12 24
-1 35 10 11 -4 45 -16 38 -6 -3 -7 -2 -3 3 5 5 14 9 20 9 7 0 11 14 10 35 l-2
35 13 -30 c10 -25 10 -32 -1 -40 -7 -6 -12 -20 -10 -32 5 -37 17 -39 17 -3 0
34 9 36 14 3 3 -18 36 -33 36 -15 0 5 11 7 24 5 19 -4 27 2 44 35 11 22 18 43
14 48 -4 4 -1 4 6 0 7 -4 10 -11 7 -16 -3 -5 -1 -11 5 -15 5 -3 10 -15 10 -26
0 -10 7 -19 15 -19 17 0 20 17 4 22 -10 3 -20 45 -20 86 1 12 -4 22 -10 22 -5
0 -9 -8 -7 -17 2 -13 -3 -17 -16 -15 -10 2 -15 -1 -12 -6 3 -5 0 -17 -7 -26
-11 -15 -13 -15 -15 8 -1 14 3 26 8 26 5 0 6 8 3 18 -6 14 -4 15 9 4 22 -18
30 6 11 35 -10 14 -11 23 -4 28 7 3 11 -2 11 -14 0 -11 4 -22 8 -25 9 -5 8 54
-4 224 -3 52 -2 91 2 87 5 -5 10 -32 10 -60 1 -29 6 -71 13 -94 6 -23 9 -60 5
-82 -4 -23 -2 -53 4 -68 5 -16 14 -37 18 -48 10 -26 9 -23 18 -77 9 -60 23
-69 32 -22 4 20 9 32 13 27 3 -4 12 -9 19 -11 10 -2 10 2 1 20 -12 22 -11 22
8 5 11 -9 23 -14 28 -10 4 5 5 -10 2 -32 -3 -22 -3 -34 0 -27 2 6 12 12 21 12
12 0 13 3 4 12 -9 9 -8 16 4 29 13 14 13 21 4 36 -10 16 -11 16 -6 0 5 -16 4
-16 -19 -1 -16 10 -22 22 -20 36 6 28 21 43 29 29 4 -6 2 -11 -3 -11 -17 0
-13 -17 5 -24 14 -5 16 -1 11 24 -6 29 7 43 16 18 2 -7 4 -1 4 15 0 15 -3 27
-8 27 -5 0 -6 7 -3 15 4 8 10 12 16 9 5 -3 15 2 23 12 12 17 14 15 30 -21 10
-22 19 -35 22 -28 2 7 0 20 -6 31 -7 13 -7 22 2 31 9 10 9 11 -4 6 -8 -3 -26
-1 -40 4 -13 5 -19 10 -12 10 7 1 10 7 7 15 -3 8 -1 17 5 21 6 3 11 16 11 28
0 14 3 18 8 10 9 -14 26 -5 35 17 3 8 6 -1 6 -20 1 -26 -2 -31 -9 -20 -7 11
-10 11 -10 2 0 -7 -4 -10 -10 -7 -5 3 -10 0 -11 -7 0 -7 -2 -21 -4 -30 -4 -20
19 -14 50 12 11 10 28 16 38 15 9 -2 17 2 17 8 0 5 2 8 5 5 3 -3 3 -12 -1 -21
-4 -12 -13 -15 -30 -11 -20 5 -24 2 -24 -16 0 -16 4 -20 16 -16 12 5 15 2 9
-11 -11 -27 -11 -38 0 -40 6 -2 10 5 10 15 0 9 6 28 14 41 l13 24 23 -29 c13
-16 20 -36 17 -48 -4 -17 -2 -19 8 -9 11 10 10 18 -3 45 -16 33 -14 53 4 42 6
-3 13 3 16 15 8 30 26 26 21 -4 -4 -17 -1 -25 9 -25 9 0 13 9 11 28 -3 25 -1
27 35 26 20 -1 37 3 37 7 0 21 22 6 34 -21 7 -17 15 -27 19 -24 3 4 1 16 -5
28 -7 11 -13 26 -14 31 0 6 -2 15 -3 20 -1 6 -6 3 -11 -5 -7 -11 -10 -11 -10
-2 0 9 -9 12 -28 9 -20 -3 -29 -1 -29 9 0 9 4 11 10 5 15 -15 48 -1 42 19 -3
10 1 25 10 33 8 9 11 17 6 19 -5 2 -13 16 -17 32 -5 22 -4 27 6 21 9 -5 11 -4
6 3 -4 7 -2 12 5 12 7 0 4 7 -7 15 -11 8 -14 15 -6 15 6 0 12 8 12 18 0 14 -2
14 -9 3 -5 -8 -16 -11 -26 -7 -19 7 -14 19 11 22 37 6 47 14 34 28 -8 11 -8
20 -1 34 6 11 7 23 3 27 -4 5 -2 5 5 1 6 -3 28 3 47 15 22 13 36 16 36 9 0 -6
5 -8 10 -5 10 6 14 -6 10 -40 l-2 -20 16 20 c11 16 17 17 27 8 17 -17 -6 -43
-38 -43 -22 0 -25 -3 -20 -27 l5 -28 -18 23 c-10 12 -20 22 -22 22 -6 0 -2
-75 6 -107 6 -24 14 -33 28 -33 16 0 19 -5 14 -23 -3 -13 0 -32 7 -43 7 -10
14 -37 16 -59 2 -22 7 -47 12 -57 5 -9 6 -30 3 -46 -7 -32 11 -76 27 -67 5 4
7 11 3 16 -3 6 3 13 15 16 12 3 18 10 14 17 -4 7 -1 7 7 -1 9 -9 10 -16 3 -25
-30 -36 -12 -158 23 -158 8 0 14 -4 14 -10 0 -5 9 -10 20 -10 13 0 20 7 20 19
0 20 -30 38 -30 18 0 -7 -5 -4 -11 5 -11 20 11 110 28 115 6 2 16 -30 22 -71
7 -42 16 -78 21 -81 17 -10 8 -70 -16 -107 -27 -42 -35 -45 -54 -23 -20 25
-32 17 -14 -10 19 -29 52 -41 67 -26 19 19 22 12 23 -52 1 -41 9 -80 23 -112
26 -58 36 -121 21 -130 -49 -30 79 -149 220 -203 166 -65 270 -93 270 -73 0 6
-8 11 -18 11 -24 0 -71 22 -76 36 -10 25 9 32 49 18 22 -7 50 -14 61 -14 12 0
38 -7 57 -15 48 -20 57 -19 57 6 0 11 5 17 10 14 6 -3 10 0 10 8 0 18 -24 29
-45 21 -8 -4 -15 -1 -15 5 0 6 -7 8 -15 5 -8 -4 -15 -2 -15 3 0 13 35 44 46
42 5 -1 14 0 19 1 6 2 19 3 29 4 11 1 21 6 23 12 2 6 -10 8 -32 6 -20 -2 -35
0 -35 6 0 6 -8 11 -17 11 -71 0 -156 10 -165 19 -6 6 -17 8 -26 5 -10 -4 -13
-2 -8 5 3 6 -3 14 -16 18 -13 4 -25 9 -28 13 -3 3 -14 11 -24 17 -11 6 -24 19
-30 30 -6 10 -19 26 -28 35 -10 9 -18 19 -18 23 0 3 -11 24 -25 46 -14 22 -25
43 -24 47 5 32 -3 63 -17 63 -11 0 -15 8 -13 28 4 32 -7 52 -27 52 -11 0 -14
-6 -9 -22 5 -18 4 -20 -4 -8 -7 9 -11 10 -11 3 0 -6 5 -15 10 -18 6 -4 7 -11
4 -17 -4 -6 -2 -8 4 -5 5 4 9 18 7 32 -1 14 2 25 6 25 5 0 9 -13 9 -30 0 -16
-4 -30 -9 -30 -6 0 -8 -10 -6 -22 5 -25 -11 -48 -32 -48 -11 0 -13 4 -5 13 5
6 8 26 7 42 -4 43 -4 43 -20 15 l-14 -25 3 33 c2 18 7 36 11 40 5 4 5 -1 2
-10 -4 -10 -4 -18 -2 -18 5 0 36 57 35 65 0 8 39 45 47 45 4 0 8 7 9 16 2 14
1 14 -15 0 -21 -19 -29 -20 -28 -3 1 32 -5 45 -26 56 -13 7 -24 19 -24 27 0
19 2 18 31 -13 24 -25 46 -28 31 -3 -10 16 -102 60 -110 52 -4 -4 -5 2 -4 13
4 23 -32 75 -51 75 -6 0 -9 4 -6 9 3 4 -3 16 -14 26 -11 10 -20 31 -20 46 0
40 20 130 29 125 3 -2 6 12 6 32 0 23 14 62 34 101 29 56 32 69 25 110 -4 25
-6 52 -5 60 1 7 -2 10 -8 6 -6 -3 -11 -1 -11 4 0 6 5 11 10 11 6 0 6 7 -1 18
-15 25 2 78 24 76 9 -1 16 1 15 5 -2 21 4 31 20 30 10 0 12 -3 5 -6 -7 -2 -13
-10 -13 -16 1 -7 9 -1 20 12 11 12 17 28 13 34 -4 6 0 8 10 4 14 -5 16 -2 11
18 -4 15 -2 25 5 25 6 0 12 10 12 23 1 18 3 16 9 -8 4 -16 8 -25 9 -19 2 22
92 104 114 104 7 0 7 -4 -1 -12 -8 -8 -6 -16 11 -31 l22 -19 -22 6 c-20 6 -21
5 -10 -17 12 -25 19 -27 107 -26 56 0 109 33 117 72 6 32 23 36 30 7 3 -11 13
-20 22 -21 10 0 11 -2 4 -6 -20 -7 -15 -23 6 -23 11 0 23 -4 26 -10 3 -5 31
-10 60 -10 50 0 55 2 61 26 7 26 18 27 68 8 12 -5 15 -2 10 10 -3 9 -14 16
-23 17 -10 0 -12 2 -3 6 7 3 24 -2 37 -11 26 -17 33 -36 14 -36 -6 0 -17 -6
-24 -14 -12 -12 -12 -15 0 -20 8 -3 15 -16 15 -29 0 -15 10 -29 31 -41 37 -22
44 -18 21 15 -21 30 -24 78 -6 103 13 19 14 19 20 -11 3 -18 12 -34 20 -37 8
-3 14 -11 14 -19 0 -15 54 -74 88 -97 12 -8 22 -20 22 -27 0 -21 23 -63 31
-57 5 3 9 1 9 -5 0 -5 -4 -13 -10 -16 -5 -3 -10 -14 -10 -23 0 -15 2 -15 10
-2 7 11 10 2 10 -31 0 -29 -7 -55 -18 -70 -12 -17 -19 -45 -21 -92 -2 -56 1
-72 20 -98 14 -21 23 -51 27 -95 2 -35 9 -61 14 -58 15 9 40 78 40 112 0 51
20 38 47 -30 16 -43 29 -33 29 21 0 35 -6 56 -20 70 -25 28 -14 44 28 39 25
-3 34 0 34 10 0 11 -8 13 -30 9 l-30 -6 -1 87 c0 48 -2 100 -4 117 -2 16 1 33
7 36 9 6 8 12 -2 23 -9 12 -11 31 -5 69 4 28 7 62 7 75 0 12 4 22 9 22 5 0 9
-7 9 -16 0 -13 3 -14 14 -5 10 8 16 9 21 1 4 -7 12 -7 25 0 13 7 21 5 31 -7
10 -12 10 -15 2 -9 -14 8 -17 -3 -5 -19 11 -16 37 -12 37 5 0 10 8 14 23 12
15 -2 31 5 45 22 16 18 26 23 37 16 8 -5 19 -5 25 0 8 7 12 5 12 -5 0 -8 -5
-15 -11 -15 -6 0 -6 -4 2 -12 18 -18 43 9 36 38 -4 17 -2 24 9 24 10 0 13 -9
11 -27 -4 -38 6 -49 21 -21 10 19 9 26 -3 41 -14 16 -14 19 3 35 10 9 15 11
11 5 -4 -8 -2 -13 6 -13 10 0 10 -2 -1 -9 -9 -6 -10 -11 -2 -15 14 -9 15 -46
1 -46 -5 0 -10 -10 -9 -22 0 -13 3 -17 6 -10 2 6 9 9 15 6 5 -3 9 0 7 7 -3 24
1 43 7 36 7 -7 64 67 64 83 0 5 5 10 11 10 7 0 5 -10 -5 -25 -17 -26 -9 -34
13 -12 8 6 11 7 8 2 -3 -6 2 -11 12 -11 14 0 18 8 17 31 -1 18 -6 29 -13 28
-7 -2 -13 2 -13 7 0 6 5 10 11 10 5 0 8 4 4 9 -3 5 0 13 5 16 7 5 5 12 -7 22
-20 16 -6 9 49 -25z m-1642 18 c0 -5 -5 -10 -11 -10 -5 0 -7 5 -4 10 3 6 8 10
11 10 2 0 4 -4 4 -10z m740 -16 c0 -8 -4 -14 -8 -14 -4 0 -8 9 -8 19 0 11 4
17 8 15 4 -3 8 -12 8 -20z m-1667 -1 c-7 -3 -13 -12 -14 -21 0 -11 -2 -13 -6
-4 -6 15 17 46 26 36 3 -4 0 -9 -6 -11z m675 -4 c11 -17 11 -23 -1 -32 -8 -7
-19 -21 -25 -32 -9 -17 -11 -17 -12 -3 0 9 8 24 17 33 13 14 14 21 5 36 -7 10
-9 19 -4 19 4 0 13 -9 20 -21z m1093 -39 c-6 -22 -14 -40 -17 -40 -9 0 -36 30
-27 30 4 0 0 7 -11 15 -10 8 -15 19 -10 26 5 9 11 7 21 -7 12 -16 15 -17 23
-4 5 8 10 22 10 30 0 11 3 11 12 2 9 -9 8 -21 -1 -52z m-591 -10 c0 -5 -4 -10
-10 -10 -5 0 -10 5 -10 10 0 6 5 10 10 10 6 0 10 -4 10 -10z m1500 -62 c0 -10
-2 -18 -4 -18 -7 0 -46 71 -46 83 1 19 50 -46 50 -65z m-2710 22 c-7 -16 -16
-27 -21 -24 -5 3 -2 19 7 35 20 39 31 30 14 -11z m2472 23 c-9 -4 -10 -9 -2
-18 7 -9 6 -16 -4 -24 -12 -10 -17 -8 -25 8 -13 24 -15 53 -2 33 6 -10 10 -10
21 3 7 8 16 13 19 9 3 -4 0 -9 -7 -11z m188 -27 c0 -24 -16 -27 -35 -6 -14 16
-15 22 -5 35 10 12 14 12 26 0 8 -7 14 -20 14 -29z m-1690 -35 c-11 -22 -30
-28 -30 -11 0 6 8 23 17 37 14 21 19 23 21 11 2 -10 -2 -26 -8 -37z m1318 29
c-7 -10 -14 -17 -17 -15 -4 4 18 35 25 35 2 0 -1 -9 -8 -20z m-206 -15 c3 -13
1 -22 -3 -19 -9 5 -13 44 -5 44 2 0 6 -11 8 -25z m-1414 -75 c-2 -59 -8 -84
-21 -97 -16 -16 -17 -16 -17 4 0 12 -8 23 -20 26 -11 3 -20 1 -20 -4 0 -5 -5
-9 -11 -9 -5 0 -2 13 8 30 9 17 21 30 24 30 4 0 10 8 12 18 3 9 5 6 4 -8 -1
-14 3 -26 8 -27 6 -2 11 21 12 50 2 70 2 67 14 67 8 0 10 -26 7 -80z m1565 41
c3 -13 1 -18 -9 -14 -7 2 -10 11 -7 19 7 19 10 18 16 -5z m-2278 -80 c3 -5 2
-12 -3 -15 -5 -3 -9 1 -9 9 0 17 3 19 12 6z m525 -121 c0 -5 -4 -10 -10 -10
-5 0 -10 5 -10 10 0 6 5 10 10 10 6 0 10 -4 10 -10z m-540 -30 c0 -16 -4 -30
-8 -30 -5 0 -7 14 -4 30 2 17 6 30 8 30 2 0 4 -13 4 -30z m500 -54 c0 -11 -19
-15 -25 -6 -3 5 1 10 9 10 9 0 16 -2 16 -4z m-515 -36 c3 -5 1 -10 -4 -10 -6
0 -11 5 -11 10 0 6 2 10 4 10 3 0 8 -4 11 -10z m540 -27 c-2 -16 1 -36 6 -45
10 -19 -5 -35 -16 -17 -4 5 -13 8 -20 5 -8 -3 -19 2 -26 10 -10 12 -8 14 12
12 20 -3 24 1 23 22 -2 20 9 39 23 40 1 0 0 -12 -2 -27z m1545 -69 c0 -12 -4
-25 -9 -28 -11 -7 -22 19 -27 64 l-4 35 20 -24 c11 -13 20 -34 20 -47z m-1670
-23 c3 -2 -3 -1 -12 2 -9 3 -19 1 -21 -6 -3 -7 -4 -2 -4 10 1 21 7 20 37 -6z
m-57 -42 c-6 -6 -7 3 -4 23 4 28 6 29 9 9 2 -13 0 -27 -5 -32z m108 8 c-17
-17 -24 -1 -9 22 11 18 14 19 16 5 2 -9 -1 -21 -7 -27z m-44 -32 c0 -8 -3 -13
-5 -10 -3 3 -10 0 -17 -5 -8 -7 -12 -5 -12 5 0 8 4 12 8 9 4 -2 10 0 14 6 9
14 12 13 12 -5z m363 -10 c7 -8 8 -15 2 -15 -5 0 -15 7 -22 15 -7 8 -8 15 -2
15 5 0 15 -7 22 -15z m-618 -77 c-7 -7 -12 -8 -12 -2 0 6 3 14 7 17 3 4 9 5
12 2 2 -3 -1 -11 -7 -17z m-252 -108 c0 -5 -2 -10 -4 -10 -3 0 -8 5 -11 10 -3
6 -1 10 4 10 6 0 11 -4 11 -10z m167 -62 c-3 -8 -6 -5 -6 6 -1 11 2 17 5 13 3
-3 4 -12 1 -19z m-765 -30 c-6 -6 -7 0 -4 19 5 21 7 23 10 9 2 -10 0 -22 -6
-28z m615 17 c0 -8 -4 -12 -9 -9 -5 3 -6 10 -3 15 9 13 12 11 12 -6z m-666
-18 c-10 -9 -11 -8 -5 6 3 10 9 15 12 12 3 -3 0 -11 -7 -18z m29 -41 c0 -6 -7
-19 -14 -29 -18 -23 -31 -5 -17 21 6 11 7 22 3 26 -3 4 1 4 11 0 9 -3 17 -11
17 -18z m98 -18 c-6 -16 -21 -14 -24 4 -1 11 3 15 12 11 8 -3 13 -10 12 -15z
m1685 -14 c9 -9 -4 -35 -14 -28 -5 3 -9 12 -9 20 0 14 12 19 23 8z m-1800 -78
c4 -27 2 -35 -6 -27 -9 9 -13 27 -16 71 -1 13 -2 13 -11 0 -5 -8 -10 -10 -10
-4 0 6 3 14 7 18 12 12 31 -18 36 -58z m100 -6 c4 -17 2 -18 -14 -9 -11 5 -17
14 -14 20 10 15 22 10 28 -11z m89 2 c-4 -11 -1 -13 9 -7 8 5 11 4 6 -1 -10
-11 -58 -14 -51 -2 3 4 10 5 16 2 7 -5 9 -2 6 8 -4 8 -1 15 7 15 8 0 11 -7 7
-15z m-43 -66 c-3 -3 -11 5 -18 17 -13 21 -12 21 5 5 10 -10 16 -20 13 -22z
m-79 -42 c0 -8 -19 -13 -24 -6 -3 5 1 9 9 9 8 0 15 -2 15 -3z m1767 -77 c2
-27 -1 -33 -18 -34 -15 -1 -19 3 -15 13 3 9 1 12 -4 9 -6 -3 -10 -1 -10 4 0 6
7 11 15 11 8 0 14 3 14 8 -2 13 1 22 9 22 4 0 8 -15 9 -33z m18 -57 c3 -5 -1
-10 -10 -10 -9 0 -13 5 -10 10 3 6 8 10 10 10 2 0 7 -4 10 -10z m25 -34 c0 -3
-4 -8 -10 -11 -5 -3 -10 -1 -10 4 0 6 5 11 10 11 6 0 10 -2 10 -4z m1152
-2116 c-3 -26 -47 -69 -71 -70 -8 0 -11 -3 -7 -7 4 -5 38 -9 74 -9 81 -2 257
-53 318 -92 60 -39 84 -79 94 -159 5 -37 6 -71 4 -75 -7 -10 -96 -68 -164
-105 -45 -25 -60 -29 -80 -21 -14 5 -55 11 -91 13 -83 3 -106 11 -112 36 -3
13 -10 18 -17 14 -6 -4 -9 -13 -6 -21 6 -17 1 -17 -25 -4 -10 6 -19 17 -19 26
0 12 -4 13 -22 3 -18 -10 -20 -9 -14 6 5 15 4 16 -9 5 -8 -7 -15 -8 -15 -3 0
5 -10 10 -22 11 -13 0 -58 3 -102 6 -77 5 -112 19 -100 38 4 7 26 7 58 2 28
-4 134 -9 236 -10 102 -1 204 -5 228 -9 66 -12 51 10 -20 28 -35 9 -92 19
-128 22 -79 7 -102 13 -95 26 7 11 6 11 -107 9 -85 -1 -88 0 -89 22 -1 17 -3
18 -6 6 -2 -10 -11 -18 -20 -18 -13 0 -13 3 -3 15 10 12 9 15 -4 15 -9 0 -19
6 -22 14 -3 8 -13 17 -21 20 -13 5 -14 4 -4 -8 13 -15 6 -40 -8 -32 -4 3 -24
6 -44 8 -32 2 -36 5 -31 23 8 26 7 25 51 40 34 13 35 14 11 15 -17 0 -31 8
-38 21 -9 16 -14 18 -25 9 -8 -6 -11 -18 -9 -25 9 -22 -5 -38 -21 -25 -10 8
-14 7 -18 -2 -3 -8 -6 -6 -6 6 -1 12 4 16 14 12 8 -3 15 -1 15 4 0 6 -9 10
-19 10 -11 0 -22 6 -25 13 -3 6 -3 -5 -1 -26 4 -26 2 -36 -6 -31 -8 4 -8 1 -1
-12 16 -28 55 -59 72 -56 9 2 8 -2 -4 -9 -15 -9 -21 -9 -24 -1 -2 7 -9 12 -15
12 -6 0 -20 8 -31 19 -26 23 -66 36 -66 21 0 -6 6 -13 14 -16 22 -8 27 -46 9
-66 -9 -10 -13 -18 -8 -18 4 0 2 -7 -5 -15 -7 -8 -10 -21 -7 -29 3 -8 -1 -17
-10 -20 -20 -8 -33 1 -26 19 3 8 1 15 -5 15 -16 0 -20 -23 -6 -37 7 -7 14 -17
16 -23 2 -6 10 -12 18 -13 27 -4 26 -22 -1 -25 -14 -2 -51 10 -83 26 -31 17
-59 26 -61 21 -3 -4 4 -13 15 -19 17 -9 18 -14 7 -30 -6 -11 -19 -20 -29 -20
-9 0 -23 -7 -32 -15 -16 -17 -30 -20 -21 -5 3 6 -1 7 -9 4 -9 -3 -16 -13 -16
-21 0 -13 -3 -13 -15 -3 -8 7 -15 19 -15 27 0 7 -11 36 -25 63 -14 27 -25 58
-25 68 0 11 -6 35 -14 53 -7 19 -12 48 -9 64 5 31 11 36 81 70 29 14 120 78
132 94 9 11 43 30 110 62 103 48 123 55 155 53 17 -1 57 3 90 8 33 6 112 10
175 9 90 -1 120 2 135 14 11 8 34 14 50 12 26 -2 30 -6 27 -27z m-503 -274
c10 -12 8 -13 -8 -9 -12 3 -21 9 -21 14 0 14 16 11 29 -5z m-5 -85 c-2 -3 -12
3 -22 13 -16 17 -16 18 5 5 12 -7 20 -15 17 -18z m52 -112 c3 -5 18 -9 33 -9
15 0 31 -4 37 -9 15 -14 93 -29 179 -36 74 -6 84 -9 133 -47 39 -31 56 -38 61
-29 6 10 10 9 14 -2 6 -17 -15 -29 -36 -21 -7 2 -22 -4 -32 -16 -22 -25 -50
-26 -67 -2 -18 24 -73 43 -87 29 -8 -8 -11 -8 -11 1 0 9 -5 10 -19 2 -14 -7
-22 -7 -27 1 -3 6 -19 9 -35 7 -15 -3 -26 -1 -23 3 11 18 -17 18 -33 -1 -18
-20 -39 -28 -28 -10 3 5 0 19 -8 31 -14 20 -16 20 -26 2 -6 -10 -11 -13 -11
-6 0 6 -8 19 -17 29 -10 10 -18 20 -18 23 -1 18 -28 51 -40 51 -21 0 -19 -13
5 -28 24 -14 26 -32 5 -32 -8 0 -15 4 -15 9 0 5 -13 11 -30 15 -49 9 -32 42
30 58 19 6 59 -2 66 -13z m-246 -33 c0 -3 -4 -8 -10 -11 -5 -3 -10 -1 -10 4 0
6 5 11 10 11 6 0 10 -2 10 -4z m-55 -55 c-3 -5 4 -13 16 -16 16 -5 18 -9 9
-15 -7 -5 -19 -6 -27 -3 -7 3 -20 0 -27 -6 -8 -7 -25 -9 -40 -5 -28 7 -26 24
3 24 10 0 24 7 31 15 13 16 45 21 35 6z m69 -10 c4 -5 -3 -7 -14 -4 -23 6 -26
13 -6 13 8 0 17 -4 20 -9z m227 -121 c25 -11 70 -22 100 -25 30 -3 68 -9 84
-13 28 -8 24 -10 -44 -25 -79 -18 -98 -21 -88 -11 6 7 -43 43 -78 59 -11 4
-22 9 -25 10 -3 2 -15 6 -27 10 -13 4 -23 11 -23 16 0 12 42 3 101 -21z"/>
<path d="M5879 4347 c-11 -8 -14 -18 -8 -32 7 -18 8 -18 8 -2 1 10 5 16 10 12
6 -3 9 4 8 15 -1 11 -1 20 -2 20 0 0 -7 -6 -16 -13z"/>
<path d="M5796 4335 c-22 -17 -13 -35 18 -33 24 2 32 28 9 28 -8 0 -11 5 -8
10 8 13 4 12 -19 -5z"/>
<path d="M5050 4331 c0 -5 7 -11 15 -15 9 -3 15 0 15 9 0 8 -7 15 -15 15 -8 0
-15 -4 -15 -9z"/>
<path d="M5594 4296 c1 -14 4 -28 7 -31 3 -3 5 6 5 19 -1 14 -4 28 -7 31 -3 3
-5 -6 -5 -19z"/>
<path d="M6040 4285 c0 -8 5 -15 10 -15 6 0 10 7 10 15 0 8 -4 15 -10 15 -5 0
-10 -7 -10 -15z"/>
<path d="M5388 4279 c-7 -4 -9 -11 -5 -16 5 -4 12 -1 17 7 8 13 10 13 10 -1 0
-12 7 -15 26 -11 18 3 22 8 15 15 -13 13 -46 16 -63 6z"/>
<path d="M5562 4271 c-11 -7 -11 -9 0 -14 9 -3 15 1 15 9 0 8 -1 14 -1 14 -1
0 -7 -4 -14 -9z"/>
<path d="M5627 4267 c8 -12 9 -18 12 -38 1 -8 6 -8 16 1 21 17 19 23 -10 37
-19 8 -23 8 -18 0z"/>
<path d="M5775 4271 c-3 -5 -1 -12 5 -16 5 -3 10 1 10 9 0 18 -6 21 -15 7z"/>
<path d="M5516 4251 c-3 -5 0 -14 7 -19 10 -8 13 -6 14 9 2 19 -11 26 -21 10z"/>
<path d="M5446 4233 c-6 -14 -5 -15 5 -6 7 7 10 15 7 18 -3 3 -9 -2 -12 -12z"/>
<path d="M6018 4223 c5 -21 7 -23 10 -9 2 10 0 22 -6 28 -6 6 -7 0 -4 -19z"/>
<path d="M4247 4220 c-3 -11 -2 -20 3 -20 12 0 21 28 11 35 -5 2 -11 -4 -14
-15z"/>
<path d="M5574 4218 c-5 -7 -3 -8 6 -3 9 6 12 4 8 -7 -4 -8 0 -15 7 -15 10 0
11 5 4 19 -11 21 -15 22 -25 6z"/>
<path d="M5486 4195 c-9 -26 -7 -32 5 -12 6 10 9 21 6 23 -2 3 -7 -2 -11 -11z"/>
<path d="M4270 4191 c0 -7 -5 -9 -12 -5 -7 4 -10 4 -6 -1 4 -4 3 -14 -3 -21
-7 -8 -7 -14 1 -19 6 -3 8 -11 4 -16 -3 -5 0 -16 6 -24 6 -8 9 -19 5 -25 -4
-6 -3 -10 2 -9 28 5 39 -28 19 -60 -5 -7 -3 -18 4 -24 6 -7 11 -7 10 -2 -5 25
1 37 16 31 12 -4 15 -2 10 9 -3 8 -9 22 -13 32 -4 11 -3 14 5 9 7 -4 10 5 7
31 -1 21 -3 44 -4 51 -1 8 -10 10 -28 6 -26 -7 -27 -6 -14 10 11 13 11 20 3
28 -9 9 -12 9 -12 -1z"/>
<path d="M5450 4141 c0 -6 4 -13 10 -16 6 -3 7 1 4 9 -7 18 -14 21 -14 7z"/>
<path d="M3840 4120 c-8 -5 -11 -12 -8 -16 4 -3 14 1 23 10 18 17 9 21 -15 6z"/>
<path d="M3830 4049 c0 -5 5 -7 10 -4 6 3 10 8 10 11 0 2 -4 4 -10 4 -5 0 -10
-5 -10 -11z"/>
<path d="M5221 4044 c0 -11 3 -14 6 -6 3 7 2 16 -1 19 -3 4 -6 -2 -5 -13z"/>
<path d="M5431 4044 c0 -11 3 -14 6 -6 3 7 2 16 -1 19 -3 4 -6 -2 -5 -13z"/>
<path d="M4245 4020 c4 -6 11 -8 16 -5 14 9 11 15 -7 15 -8 0 -12 -5 -9 -10z"/>
<path d="M3835 3939 c-4 -11 -4 -23 -1 -26 3 -4 0 -13 -7 -22 -10 -14 -10 -14
4 -4 9 7 20 9 25 5 4 -4 3 0 -3 8 -6 8 -9 25 -7 38 5 28 -2 29 -11 1z"/>
<path d="M4255 3949 c-4 -6 -5 -12 -2 -15 2 -3 7 2 10 11 7 17 1 20 -8 4z"/>
<path d="M4338 3915 c-12 -15 -27 -33 -33 -39 -15 -17 -35 -54 -35 -64 0 -15
44 -8 62 11 10 9 24 17 32 17 8 0 16 6 18 12 3 9 31 13 91 13 69 0 90 -4 104
-17 21 -21 10 -36 -13 -17 -25 20 -142 13 -175 -11 -21 -14 -29 -16 -39 -7
-10 10 -12 8 -7 -5 4 -10 2 -19 -3 -19 -6 -1 -16 -2 -22 -3 -7 0 -13 -8 -13
-16 0 -10 8 -14 25 -12 44 6 74 5 100 -3 24 -8 24 -8 8 12 -26 29 -22 36 12
18 29 -15 31 -15 55 11 24 26 40 26 40 1 0 -7 15 -19 32 -28 18 -9 30 -19 26
-23 -3 -3 -2 -6 4 -6 6 0 14 7 17 16 4 9 13 14 21 10 12 -4 15 4 15 39 0 53
-25 82 -79 90 -20 4 -44 10 -53 16 -24 13 -62 11 -76 -3 -16 -16 -16 4 1 23
10 12 10 12 -2 2 -18 -16 -63 -17 -78 -2 -8 8 -17 4 -35 -16z"/>
<path d="M4291 3914 c0 -11 3 -14 6 -6 3 7 2 16 -1 19 -3 4 -6 -2 -5 -13z"/>
<path d="M4256 3903 c-6 -14 -5 -15 5 -6 7 7 10 15 7 18 -3 3 -9 -2 -12 -12z"/>
<path d="M3880 3891 c0 -5 7 -12 16 -15 14 -5 15 -4 4 9 -14 17 -20 19 -20 6z"/>
<path d="M4827 3859 c-9 -10 -12 -21 -7 -24 5 -3 11 -1 15 4 5 10 105 14 105
5 0 -3 -13 -10 -30 -15 -34 -12 -40 -29 -11 -29 10 0 21 -9 24 -20 5 -21 51
-29 62 -10 3 6 1 10 -4 10 -6 0 -11 5 -11 10 0 15 18 12 38 -7 10 -10 25 -19
33 -21 8 -2 22 -11 32 -19 9 -9 20 -13 24 -9 11 11 -55 63 -104 82 -24 9 -43
21 -43 26 0 6 7 7 16 4 9 -3 26 -6 38 -6 13 0 44 -16 70 -35 48 -37 63 -31 24
9 -45 45 -73 55 -165 59 -79 4 -93 2 -106 -14z"/>
<path d="M3911 3844 c0 -11 3 -14 6 -6 3 7 2 16 -1 19 -3 4 -6 -2 -5 -13z"/>
<path d="M4834 3802 c-8 -13 -8 -20 1 -29 14 -13 55 -6 55 8 0 12 -14 11 -27
-2 -8 -8 -13 -7 -19 2 -4 7 -3 14 4 17 7 2 12 8 12 13 0 15 -14 10 -26 -9z"/>
<path d="M3770 3790 c0 -5 -5 -9 -11 -7 -6 1 -13 -4 -14 -11 -2 -7 -1 -8 1 -4
3 5 18 8 34 6 35 -4 38 1 10 16 -14 7 -20 7 -20 0z"/>
<path d="M5321 3721 c-15 -10 -11 -43 5 -48 12 -4 26 45 15 52 -4 2 -13 0 -20
-4z"/>
<path d="M3600 3689 c0 -15 18 -19 23 -6 3 8 -1 14 -9 14 -8 0 -14 -4 -14 -8z"/>
<path d="M3470 3679 c0 -17 24 -59 33 -59 5 0 5 6 -1 13 -6 7 -9 22 -6 33 4
14 1 21 -10 21 -9 0 -16 -4 -16 -8z"/>
<path d="M3457 3626 c-4 -10 -3 -15 3 -11 6 3 10 1 10 -4 0 -6 -4 -11 -10 -11
-5 0 -10 -5 -10 -12 0 -8 6 -7 16 4 12 11 13 21 7 33 -9 16 -11 16 -16 1z"/>
<path d="M4591 3586 c-7 -8 -21 -12 -32 -9 -17 5 -19 2 -13 -21 4 -17 2 -26
-6 -26 -6 0 -8 5 -4 11 4 7 1 10 -7 7 -8 -3 -16 -15 -17 -28 -2 -13 -11 -30
-20 -37 -16 -11 -16 -12 1 -13 9 0 25 8 35 18 10 10 26 21 35 25 9 3 17 13 17
20 0 8 9 22 20 32 21 19 26 35 11 35 -5 0 -14 -6 -20 -14z"/>
<path d="M5245 3590 c3 -5 8 -10 11 -10 2 0 4 5 4 10 0 6 -5 10 -11 10 -5 0
-7 -4 -4 -10z"/>
<path d="M3461 3534 c0 -11 3 -14 6 -6 3 7 2 16 -1 19 -3 4 -6 -2 -5 -13z"/>
<path d="M3996 3543 c-3 -3 0 -13 7 -21 9 -12 9 -16 -1 -19 -6 -3 -9 -9 -6
-15 4 -6 10 -5 15 3 6 11 14 8 37 -14 32 -31 54 -34 72 -12 9 11 10 19 3 26
-8 8 -13 7 -17 0 -12 -19 -34 -12 -70 23 -19 19 -37 32 -40 29z"/>
<path d="M3480 3531 c0 -6 4 -13 10 -16 6 -3 7 1 4 9 -7 18 -14 21 -14 7z"/>
<path d="M4920 3502 c0 -4 9 -13 20 -20 19 -12 20 -11 8 8 -13 20 -28 27 -28
12z"/>
<path d="M4567 3478 c-7 -25 6 -53 41 -85 29 -27 70 -26 99 2 15 16 18 16 28
1 14 -18 26 -11 18 10 -3 8 0 14 7 14 22 0 -11 30 -62 56 -62 31 -123 33 -131
2z"/>
<path d="M3167 3466 c-10 -8 -14 -16 -10 -19 5 -3 14 3 21 14 14 22 13 23 -11
5z"/>
<path d="M4796 3455 c-14 -11 -16 -15 -5 -15 26 0 59 12 59 21 0 14 -33 10
-54 -6z"/>
<path d="M2954 3333 c-10 -16 -18 -31 -17 -34 1 -3 -4 -6 -12 -6 -11 0 -12 5
-3 21 8 17 8 19 -3 9 -10 -10 -17 -9 -33 5 -18 15 -19 15 -8 0 7 -9 12 -25 10
-35 -2 -10 3 -18 12 -18 8 -1 14 -7 12 -15 -1 -8 7 -4 18 10 11 14 20 21 20
16 0 -5 8 -2 18 7 10 10 22 15 25 12 4 -3 3 1 -3 7 -13 15 -13 31 0 23 6 -3 7
1 4 9 -9 23 -19 20 -40 -11z m15 -29 c-6 -7 -15 -11 -21 -8 -5 3 -4 12 3 20 6
7 15 11 21 8 5 -3 4 -12 -3 -20z"/>
<path d="M3106 3343 c-6 -14 -5 -15 5 -6 7 7 10 15 7 18 -3 3 -9 -2 -12 -12z"/>
<path d="M2846 3332 c-3 -6 1 -13 10 -16 8 -3 12 -11 8 -17 -4 -8 -3 -9 5 -5
9 6 9 12 -1 24 -7 10 -13 18 -14 20 -1 2 -5 -1 -8 -6z"/>
<path d="M4428 3303 c-7 -29 19 -72 40 -66 10 2 24 -3 31 -11 8 -9 26 -16 41
-16 15 0 33 -7 40 -15 10 -12 16 -13 26 -4 17 14 18 31 2 27 -7 -2 -14 2 -16
7 -1 6 12 13 30 17 27 5 214 17 321 20 25 1 41 18 16 18 -5 0 -7 5 -4 10 8 12
-1 13 -23 1 -42 -22 -298 -9 -469 25 -25 5 -32 2 -35 -13z"/>
<path d="M2427 3293 c8 -3 5 -12 -11 -26 -13 -12 -31 -44 -40 -71 -19 -59 -20
-70 -4 -60 8 5 9 2 5 -10 -4 -9 -3 -15 2 -11 6 3 15 -3 21 -12 10 -16 11 -16
5 2 -4 11 -8 26 -8 33 0 6 -5 12 -11 12 -6 0 -4 4 4 9 8 6 18 7 24 4 5 -3 6
-1 2 5 -4 6 -14 9 -24 6 -10 -4 -13 -3 -6 3 6 4 14 15 17 23 4 12 6 12 6 -1 1
-9 8 -20 17 -23 8 -3 13 -10 10 -14 -3 -5 1 -9 9 -9 8 0 16 6 16 14 4 42 2 48
-13 51 -10 2 -18 -2 -18 -9 0 -7 -6 -4 -14 6 -10 14 -11 25 -4 39 8 14 12 15
18 6 8 -13 42 -1 42 15 0 11 -24 25 -42 24 -10 0 -11 -2 -3 -6z"/>
<path d="M2489 3282 c11 -8 12 -14 3 -24 -6 -8 -10 -24 -9 -35 1 -25 16 -21
16 5 0 9 1 26 3 36 2 10 -4 21 -12 23 -13 4 -13 3 -1 -5z"/>
<path d="M3030 3270 c0 -5 5 -10 11 -10 5 0 7 5 4 10 -3 6 -8 10 -11 10 -2 0
-4 -4 -4 -10z"/>
<path d="M4303 3265 c0 -8 4 -12 9 -9 5 3 6 10 3 15 -9 13 -12 11 -12 -6z"/>
<path d="M2850 3256 c0 -2 8 -10 18 -17 15 -13 16 -12 3 4 -13 16 -21 21 -21
13z"/>
<path d="M2723 3236 c0 -7 9 -13 19 -13 11 -1 18 3 16 9 -5 15 -35 19 -35 4z"/>
<path d="M2801 3214 c0 -11 3 -14 6 -6 3 7 2 16 -1 19 -3 4 -6 -2 -5 -13z"/>
<path d="M2817 3205 c-4 -8 -15 -12 -26 -10 -11 2 -24 -2 -30 -9 -10 -12 -8
-12 64 -6 11 1 15 4 8 6 -7 3 -9 12 -6 20 3 8 3 14 0 14 -3 0 -7 -7 -10 -15z"/>
<path d="M2930 3175 c0 -8 2 -15 4 -15 2 0 6 7 10 15 3 8 1 15 -4 15 -6 0 -10
-7 -10 -15z"/>
<path d="M2566 3165 c-4 -12 -1 -16 11 -13 18 3 21 20 5 26 -5 1 -12 -4 -16
-13z"/>
<path d="M2774 3152 c4 -3 14 -7 22 -8 9 -1 13 0 10 4 -4 3 -14 7 -22 8 -9 1
-13 0 -10 -4z"/>
<path d="M4603 3147 c0 -8 6 -14 13 -14 7 0 10 6 7 14 -3 7 -8 13 -12 13 -4 0
-8 -6 -8 -13z"/>
<path d="M4655 3130 c3 -5 8 -10 11 -10 2 0 4 5 4 10 0 6 -5 10 -11 10 -5 0
-7 -4 -4 -10z"/>
<path d="M2345 3079 c-12 -19 5 -23 22 -6 16 16 16 17 1 17 -9 0 -20 -5 -23
-11z"/>
<path d="M2770 3080 c-9 -6 -10 -10 -3 -10 6 0 15 5 18 10 8 12 4 12 -15 0z"/>
<path d="M2526 2895 c-3 -8 -1 -15 4 -15 13 0 22 18 11 24 -5 3 -11 -1 -15 -9z"/>
<path d="M4770 2890 c0 -5 5 -10 11 -10 5 0 7 5 4 10 -3 6 -8 10 -11 10 -2 0
-4 -4 -4 -10z"/>
<path d="M3098 2503 c7 -3 16 -2 19 1 4 3 -2 6 -13 5 -11 0 -14 -3 -6 -6z"/>
<path d="M2945 2323 c-19 -13 -18 -14 10 -7 37 8 39 10 23 17 -8 2 -23 -2 -33
-10z"/>
<path d="M2895 2290 c-3 -5 -2 -10 4 -10 5 0 13 5 16 10 3 6 2 10 -4 10 -5 0
-13 -4 -16 -10z"/>
<path d="M2861 2264 c0 -11 3 -14 6 -6 3 7 2 16 -1 19 -3 4 -6 -2 -5 -13z"/>
<path d="M5930 4381 c0 -6 5 -13 10 -16 6 -3 10 1 10 9 0 9 -4 16 -10 16 -5 0
-10 -4 -10 -9z"/>
<path d="M5170 875 c0 -9 6 -12 15 -9 8 4 15 10 15 15 0 5 -7 9 -15 9 -8 0
-15 -7 -15 -15z"/>
<path d="M5467 746 c-18 -14 -18 -14 2 -21 11 -3 62 -8 113 -10 51 -2 115 -11
142 -19 68 -22 108 -21 124 4 11 17 10 21 -5 26 -10 3 -26 10 -35 15 -24 12
-28 11 -22 -6 4 -8 13 -15 21 -15 8 0 12 -4 9 -8 -6 -10 -76 -3 -76 8 0 11
-72 20 -173 21 -49 1 -85 5 -81 10 7 12 2 11 -19 -5z"/>
<path d="M4930 614 c0 -9 -5 -12 -12 -8 -9 5 -9 2 1 -9 11 -15 11 -17 -2 -17
-11 0 -13 -6 -9 -22 5 -21 5 -21 15 3 6 13 11 27 11 31 1 3 4 10 9 14 10 11 9
24 -3 24 -5 0 -10 -7 -10 -16z"/>
<path d="M5745 540 c-3 -5 1 -10 10 -10 9 0 13 5 10 10 -3 6 -8 10 -10 10 -2
0 -7 -4 -10 -10z"/>
</g>
</svg>
